<svg width="474" height="474" viewBox="0 0 474 474" fill="none" xmlns="http://www.w3.org/2000/svg">
<circle opacity="0.3" cx="169.193" cy="278.051" r="26.1933" fill="#FF7472"/>
<circle opacity="0.3" cx="305.051" cy="278.193" r="26.1933" fill="#FF7472"/>
<mask id="mask0_2725_1123" style="mask-type:alpha" maskUnits="userSpaceOnUse" x="166" y="208" width="58" height="75">
<rect x="166.984" y="208.688" width="56.1067" height="73.5191" rx="28.0533" fill="white"/>
</mask>
<g mask="url(#mask0_2725_1123)">
<rect x="166.984" y="208.688" width="56.1067" height="73.5191" rx="28.0533" fill="white"/>
<path d="M194.58 225C203.264 225 210.303 232.04 210.304 240.724V250.483C210.304 259.167 203.264 266.208 194.58 266.208C185.896 266.208 178.855 259.168 178.855 250.483V240.724C178.856 238.566 179.291 236.51 180.077 234.638C180.893 234.992 181.819 235.194 182.8 235.194C186.091 235.194 188.759 232.94 188.759 230.161C188.759 228.874 188.186 227.701 187.245 226.812C189.435 225.655 191.931 225 194.58 225Z" fill="black"/>
<rect x="166.855" y="209" width="56" height="31" fill="#FFCBA3"/>
<rect x="166.855" y="209" width="56" height="31" fill="black" fill-opacity="0.1"/>
</g>
<mask id="mask1_2725_1123" style="mask-type:alpha" maskUnits="userSpaceOnUse" x="236" y="208" width="57" height="75">
<rect x="236.623" y="208.688" width="56.1067" height="73.5191" rx="28.0533" fill="white"/>
</mask>
<g mask="url(#mask1_2725_1123)">
<rect x="236.623" y="208.688" width="56.1067" height="73.5191" rx="28.0533" fill="white"/>
<path d="M264.581 225C273.265 225 280.305 232.04 280.306 240.724V250.483C280.306 259.168 273.265 266.208 264.581 266.208C255.897 266.208 248.857 259.167 248.857 250.483V240.724C248.857 238.566 249.291 236.509 250.078 234.637C250.895 234.992 251.82 235.194 252.802 235.194C256.093 235.194 258.761 232.94 258.761 230.161C258.761 228.874 258.188 227.701 257.247 226.812C259.437 225.655 261.932 225 264.581 225Z" fill="black"/>
<rect x="236.857" y="209" width="56" height="31" fill="#FFCBA3"/>
<rect x="236.857" y="209" width="56" height="31" fill="black" fill-opacity="0.1"/>
</g>
</svg>
