<svg width="474" height="474" viewBox="0 0 474 474" fill="none" xmlns="http://www.w3.org/2000/svg">
<circle opacity="0.3" cx="161.193" cy="278.051" r="26.1933" fill="#FF7472"/>
<circle opacity="0.3" cx="313.051" cy="278.193" r="26.1933" fill="#FF7472"/>
<mask id="mask0_2726_2227" style="mask-type:alpha" maskUnits="userSpaceOnUse" x="159" y="247" width="57" height="36">
<path d="M158.999 254.154C158.999 269.648 171.559 282.208 187.052 282.208C202.545 282.208 215.105 269.648 215.105 254.154V247H158.999V254.154Z" fill="white"/>
</mask>
<g mask="url(#mask0_2726_2227)">
<rect width="56.1067" height="73.5191" rx="28.0533" transform="matrix(-1 0 0 1 215.105 207.761)" fill="white"/>
<path d="M193.376 225.33C205.377 225.33 215.106 235.059 215.106 247.061V260.549C215.106 272.55 205.377 282.28 193.376 282.28C181.374 282.28 171.645 272.551 171.645 260.549V247.061C171.645 244.078 172.246 241.236 173.333 238.648C174.461 239.139 175.74 239.418 177.096 239.418C181.644 239.418 185.331 236.304 185.331 232.463C185.331 230.685 184.54 229.064 183.24 227.835C186.266 226.236 189.715 225.33 193.376 225.33Z" fill="black"/>
</g>
<mask id="mask1_2726_2227" style="mask-type:alpha" maskUnits="userSpaceOnUse" x="244" y="208" width="57" height="75">
<path d="M272.677 208.688C288.17 208.689 300.729 221.249 300.729 236.742V254.154C300.729 269.648 288.17 282.208 272.677 282.208C257.183 282.208 244.623 269.648 244.623 254.154V236.742C244.623 221.249 257.183 208.688 272.677 208.688Z" fill="white"/>
</mask>
<g mask="url(#mask1_2726_2227)">
<rect x="244.623" y="208.688" width="56.1067" height="73.5191" rx="28.0533" fill="white"/>
<path d="M266.354 226.258C278.356 226.258 288.085 235.987 288.085 247.988V261.477C288.085 273.478 278.356 283.208 266.354 283.208C254.353 283.208 244.623 273.478 244.623 261.477V247.988C244.623 245.006 245.224 242.164 246.312 239.576C247.44 240.066 248.718 240.346 250.074 240.346C254.623 240.346 258.31 237.232 258.31 233.391C258.309 231.613 257.518 229.992 256.219 228.763C259.245 227.164 262.694 226.258 266.354 226.258Z" fill="black"/>
</g>
<path d="M272.676 188.948C286.053 188.948 298.019 194.986 305.999 204.486" stroke="#EFA076" stroke-width="10" stroke-linecap="round" stroke-linejoin="round"/>
<path d="M272.676 188.948C286.053 188.948 298.019 194.986 305.999 204.486" stroke="black" stroke-opacity="0.2" stroke-width="10" stroke-linecap="round" stroke-linejoin="round"/>
</svg>
