<svg width="474" height="474" viewBox="0 0 474 474" fill="none" xmlns="http://www.w3.org/2000/svg">
<circle opacity="0.3" cx="169.193" cy="278.051" r="26.1933" fill="#FF7472"/>
<circle opacity="0.3" cx="305.193" cy="278.193" r="26.1933" fill="#FF7472"/>
<path d="M170.137 256.319C171.547 252.915 173.613 249.822 176.218 247.217C178.823 244.612 181.916 242.545 185.32 241.136C188.724 239.726 192.372 239 196.056 239C199.74 239 203.389 239.726 206.792 241.136C210.196 242.545 213.289 244.612 215.894 247.217C218.499 249.822 220.566 252.915 221.976 256.319" stroke="#EFA076" stroke-width="10" stroke-linecap="round"/>
<path d="M170.137 256.319C171.547 252.915 173.613 249.822 176.218 247.217C178.823 244.612 181.916 242.545 185.32 241.136C188.724 239.726 192.372 239 196.056 239C199.74 239 203.389 239.726 206.792 241.136C210.196 242.545 213.289 244.612 215.894 247.217C218.499 249.822 220.566 252.915 221.976 256.319" stroke="black" stroke-opacity="0.2" stroke-width="10" stroke-linecap="round"/>
<circle opacity="0.3" cx="169.193" cy="278.051" r="26.1933" fill="#FF7472"/>
<circle opacity="0.3" cx="305.193" cy="278.193" r="26.1933" fill="#FF7472"/>
<path d="M247.137 256.319C248.547 252.915 250.613 249.822 253.218 247.217C255.823 244.612 258.916 242.545 262.32 241.136C265.724 239.726 269.372 239 273.056 239C276.74 239 280.389 239.726 283.792 241.136C287.196 242.545 290.289 244.612 292.894 247.217C295.499 249.822 297.566 252.915 298.976 256.319" stroke="#EFA076" stroke-width="10" stroke-linecap="round"/>
<path d="M247.137 256.319C248.547 252.915 250.613 249.822 253.218 247.217C255.823 244.612 258.916 242.545 262.32 241.136C265.724 239.726 269.372 239 273.056 239C276.74 239 280.389 239.726 283.792 241.136C287.196 242.545 290.289 244.612 292.894 247.217C295.499 249.822 297.566 252.915 298.976 256.319" stroke="black" stroke-opacity="0.2" stroke-width="10" stroke-linecap="round"/>
</svg>
