<svg width="474" height="474" viewBox="0 0 474 474" fill="none" xmlns="http://www.w3.org/2000/svg">
<circle opacity="0.3" cx="161.193" cy="278.051" r="26.1933" fill="#FF7472"/>
<circle opacity="0.3" cx="313.051" cy="278.193" r="26.1933" fill="#FF7472"/>
<mask id="mask0_2726_2025" style="mask-type:alpha" maskUnits="userSpaceOnUse" x="159" y="208" width="57" height="74">
<path d="M183.385 208C169.624 209.797 158.999 221.564 158.999 235.814V253.227C158.999 268.72 171.559 281.28 187.052 281.28C202.545 281.28 215.105 268.72 215.105 253.227V235.814C215.105 232.741 214.611 229.783 213.697 227.016L183.385 208Z" fill="white"/>
</mask>
<g mask="url(#mask0_2726_2025)">
<rect width="56.1067" height="73.5191" rx="28.0533" transform="matrix(-1 0 0 1 215.105 207.761)" fill="white"/>
<path d="M193.376 225.33C205.377 225.33 215.106 235.059 215.106 247.061V260.549C215.106 272.55 205.377 282.28 193.376 282.28C181.374 282.28 171.645 272.551 171.645 260.549V247.061C171.645 244.078 172.246 241.236 173.333 238.648C174.461 239.139 175.74 239.418 177.096 239.418C181.644 239.418 185.331 236.304 185.331 232.463C185.331 230.685 184.54 229.064 183.24 227.835C186.266 226.236 189.715 225.33 193.376 225.33Z" fill="black"/>
<path d="M204.02 264.072C203.204 266.038 202.008 267.823 200.5 269.328C198.992 270.832 197.203 272.025 195.233 272.839C193.263 273.653 191.152 274.072 189.02 274.072" stroke="white" stroke-width="6" stroke-linecap="round"/>
</g>
<mask id="mask1_2726_2025" style="mask-type:alpha" maskUnits="userSpaceOnUse" x="244" y="208" width="57" height="75">
<path d="M276.344 208.928C290.104 210.724 300.729 222.492 300.729 236.742V254.154C300.729 269.648 288.17 282.208 272.677 282.208C257.183 282.208 244.623 269.648 244.623 254.154V236.742C244.623 233.669 245.118 230.711 246.031 227.943L276.344 208.928Z" fill="white"/>
</mask>
<g mask="url(#mask1_2726_2025)">
<rect x="244.623" y="208.688" width="56.1067" height="73.5191" rx="28.0533" fill="white"/>
<path d="M266.354 226.258C278.356 226.258 288.085 235.987 288.085 247.988V261.477C288.085 273.478 278.356 283.208 266.354 283.208C254.353 283.208 244.623 273.478 244.623 261.477V247.988C244.623 245.006 245.224 242.164 246.312 239.576C247.44 240.066 248.718 240.346 250.074 240.346C254.623 240.346 258.31 237.232 258.31 233.391C258.309 231.613 257.518 229.992 256.219 228.763C259.245 227.164 262.694 226.258 266.354 226.258Z" fill="black"/>
<path d="M277 265C276.184 266.965 274.988 268.751 273.481 270.255C271.973 271.76 270.183 272.953 268.213 273.767C266.243 274.581 264.132 275 262 275" stroke="white" stroke-width="6" stroke-linecap="round"/>
</g>
<path d="M245 228L285 203" stroke="#EFA076" stroke-width="10" stroke-linecap="round" stroke-linejoin="round"/>
<path d="M245 228L285 203" stroke="black" stroke-opacity="0.2" stroke-width="10" stroke-linecap="round" stroke-linejoin="round"/>
<path d="M215 228L176 204" stroke="#EFA076" stroke-width="10" stroke-linecap="round" stroke-linejoin="round"/>
<path d="M215 228L176 204" stroke="black" stroke-opacity="0.2" stroke-width="10" stroke-linecap="round" stroke-linejoin="round"/>
</svg>
