<svg width="474" height="474" viewBox="0 0 474 474" fill="none" xmlns="http://www.w3.org/2000/svg">
<circle opacity="0.3" cx="169.193" cy="278.051" r="26.1933" fill="#FF7472"/>
<circle opacity="0.3" cx="305.051" cy="278.193" r="26.1933" fill="#FF7472"/>
<mask id="mask0_2724_1999" style="mask-type:alpha" maskUnits="userSpaceOnUse" x="166" y="208" width="58" height="75">
<rect x="166.984" y="208.688" width="56.1067" height="73.5191" rx="28.0533" fill="white"/>
</mask>
<g mask="url(#mask0_2724_1999)">
<rect x="166.984" y="208.688" width="56.1067" height="73.5191" rx="28.0533" fill="white"/>
<path d="M203.296 225.258C215.297 225.258 225.026 234.987 225.026 246.989V260.477C225.026 272.478 215.297 282.208 203.296 282.208C191.294 282.208 181.564 272.479 181.564 260.477V246.989C181.564 244.006 182.166 241.164 183.253 238.576C184.381 239.067 185.66 239.346 187.016 239.346C191.564 239.346 195.251 236.232 195.251 232.391C195.251 230.613 194.46 228.993 193.16 227.763C196.186 226.164 199.635 225.258 203.296 225.258Z" fill="black"/>
</g>
<mask id="mask1_2724_1999" style="mask-type:alpha" maskUnits="userSpaceOnUse" x="236" y="208" width="57" height="75">
<rect x="236.623" y="208.688" width="56.1067" height="73.5191" rx="28.0533" fill="white"/>
</mask>
<g mask="url(#mask1_2724_1999)">
<rect x="236.623" y="208.688" width="56.1067" height="73.5191" rx="28.0533" fill="white"/>
<path d="M258.354 225.258C270.356 225.258 280.085 234.987 280.085 246.989V260.477C280.085 272.478 270.356 282.208 258.354 282.208C246.353 282.208 236.623 272.479 236.623 260.477V246.989C236.623 244.006 237.224 241.164 238.312 238.576C239.44 239.067 240.718 239.346 242.074 239.346C246.623 239.346 250.31 236.232 250.31 232.391C250.309 230.613 249.518 228.993 248.219 227.763C251.245 226.164 254.694 225.258 258.354 225.258Z" fill="black"/>
</g>
</svg>
