<svg width="474" height="474" viewBox="0 0 474 474" fill="none" xmlns="http://www.w3.org/2000/svg">
<circle opacity="0.3" cx="169.193" cy="278.051" r="26.1933" fill="#FF7472"/>
<circle opacity="0.3" cx="305.051" cy="278.193" r="26.1933" fill="#FF7472"/>
<mask id="mask0_2725_1258" style="mask-type:alpha" maskUnits="userSpaceOnUse" x="166" y="208" width="58" height="75">
<rect x="166.984" y="208.688" width="56.1067" height="73.5191" rx="28.0533" fill="white"/>
</mask>
<g mask="url(#mask0_2725_1258)">
<rect x="166.984" y="208.688" width="56.1067" height="73.5191" rx="28.0533" fill="white"/>
<path d="M177.594 205C190.493 205 200.949 215.457 200.949 228.355V242.853C200.949 255.751 190.493 266.208 177.594 266.208C164.695 266.208 154.238 255.751 154.238 242.853V228.355C154.238 225.15 154.884 222.095 156.053 219.313C157.265 219.84 158.639 220.141 160.097 220.141C164.985 220.141 168.948 216.794 168.948 212.666C168.948 210.755 168.098 209.013 166.701 207.691C169.953 205.974 173.66 205 177.594 205Z" fill="black"/>
<rect x="166.855" y="209" width="56" height="31" fill="#FFCBA3"/>
<rect x="166.855" y="209" width="56" height="31" fill="black" fill-opacity="0.1"/>
</g>
<mask id="mask1_2725_1258" style="mask-type:alpha" maskUnits="userSpaceOnUse" x="236" y="208" width="57" height="75">
<rect x="236.623" y="208.688" width="56.1067" height="73.5191" rx="28.0533" fill="white"/>
</mask>
<g mask="url(#mask1_2725_1258)">
<rect x="236.623" y="208.688" width="56.1067" height="73.5191" rx="28.0533" fill="white"/>
<path d="M255.213 206C268.112 206 278.568 216.457 278.568 229.355V243.853C278.568 256.751 268.112 267.208 255.213 267.208C242.314 267.208 231.858 256.751 231.857 243.853V229.355C231.857 226.15 232.503 223.095 233.672 220.313C234.884 220.84 236.258 221.141 237.715 221.141C242.603 221.141 246.566 217.794 246.566 213.666C246.566 211.755 245.717 210.013 244.32 208.691C247.573 206.973 251.279 206 255.213 206Z" fill="black"/>
<rect x="236.857" y="209" width="56" height="31" fill="#FFCBA3"/>
<rect x="236.857" y="209" width="56" height="31" fill="black" fill-opacity="0.1"/>
</g>
</svg>
