<svg width="474" height="474" viewBox="0 0 474 474" fill="none" xmlns="http://www.w3.org/2000/svg">
<circle opacity="0.3" cx="161.193" cy="278.051" r="26.1933" fill="#FF7472"/>
<circle opacity="0.3" cx="313.051" cy="278.193" r="26.1933" fill="#FF7472"/>
<mask id="mask0_2726_2341" style="mask-type:alpha" maskUnits="userSpaceOnUse" x="163" y="208" width="57" height="75">
<path d="M191.323 208.74C175.83 208.74 163.271 221.301 163.271 236.794V254.206C163.271 269.699 175.83 282.26 191.323 282.26C206.817 282.26 219.377 269.699 219.377 254.206V236.794C219.377 221.301 206.817 208.74 191.323 208.74Z" fill="white"/>
</mask>
<g mask="url(#mask0_2726_2341)">
<rect width="56.1067" height="73.5191" rx="28.0533" transform="matrix(-1 0 0 1 219.377 208.74)" fill="white"/>
<path d="M197.646 226.31C185.644 226.31 175.915 236.039 175.915 248.04V261.528C175.915 273.53 185.644 283.26 197.646 283.26C209.647 283.26 219.377 273.53 219.377 261.528V248.04C219.377 245.057 218.776 242.215 217.688 239.628C216.56 240.118 215.282 240.397 213.926 240.397C209.377 240.397 205.69 237.283 205.69 233.442C205.691 231.665 206.482 230.044 207.781 228.814C204.755 227.216 201.306 226.31 197.646 226.31Z" fill="black"/>
</g>
<path d="M188.162 186C178.126 186 169.149 190.663 163.162 198" stroke="#EFA076" stroke-width="10" stroke-linecap="round" stroke-linejoin="round"/>
<path d="M188.162 186C178.126 186 169.149 190.663 163.162 198" stroke="black" stroke-opacity="0.2" stroke-width="10" stroke-linecap="round" stroke-linejoin="round"/>
<mask id="mask1_2726_2341" style="mask-type:alpha" maskUnits="userSpaceOnUse" x="244" y="208" width="57" height="75">
<path d="M272.677 208.688C288.17 208.689 300.729 221.249 300.729 236.742V254.154C300.729 269.648 288.17 282.208 272.677 282.208C257.183 282.208 244.623 269.648 244.623 254.154V236.742C244.623 221.249 257.183 208.688 272.677 208.688Z" fill="white"/>
</mask>
<g mask="url(#mask1_2726_2341)">
<rect x="244.623" y="208.688" width="56.1067" height="73.5191" rx="28.0533" fill="white"/>
<path d="M266.354 226.258C278.356 226.258 288.085 235.987 288.085 247.988V261.477C288.085 273.478 278.356 283.208 266.354 283.208C254.353 283.208 244.623 273.478 244.623 261.477V247.988C244.623 245.006 245.224 242.164 246.312 239.576C247.44 240.066 248.718 240.346 250.074 240.346C254.623 240.346 258.31 237.232 258.31 233.391C258.309 231.613 257.518 229.992 256.219 228.763C259.245 227.164 262.694 226.258 266.354 226.258Z" fill="black"/>
</g>
<path d="M273 186C283.036 186 292.013 190.663 298 198" stroke="#EFA076" stroke-width="10" stroke-linecap="round" stroke-linejoin="round"/>
<path d="M273 186C283.036 186 292.013 190.663 298 198" stroke="black" stroke-opacity="0.2" stroke-width="10" stroke-linecap="round" stroke-linejoin="round"/>
</svg>
