<svg width="474" height="474" viewBox="0 0 474 474" fill="none" xmlns="http://www.w3.org/2000/svg">
<circle opacity="0.3" cx="169.193" cy="278.051" r="26.1933" fill="#FF7472"/>
<circle opacity="0.3" cx="305.051" cy="278.193" r="26.1933" fill="#FF7472"/>
<mask id="mask0_2726_1930" style="mask-type:alpha" maskUnits="userSpaceOnUse" x="166" y="243" width="57" height="20">
<rect x="166.857" y="243.948" width="56" height="19" rx="9.5" fill="white"/>
</mask>
<g mask="url(#mask0_2726_1930)">
<rect x="166.984" y="216.688" width="56.1067" height="73.5191" rx="28.0533" fill="white"/>
<path d="M203.298 226.258C215.299 226.258 225.028 235.987 225.028 247.988V261.477C225.028 273.478 215.299 283.208 203.298 283.208C191.296 283.208 181.566 273.478 181.566 261.477V247.988C181.566 245.006 182.168 242.164 183.255 239.576C184.383 240.066 185.662 240.346 187.018 240.346C191.566 240.346 195.253 237.232 195.253 233.391C195.253 231.613 194.462 229.992 193.162 228.763C196.188 227.164 199.637 226.258 203.298 226.258Z" fill="black"/>
</g>
<mask id="mask1_2726_1930" style="mask-type:alpha" maskUnits="userSpaceOnUse" x="244" y="243" width="57" height="20">
<rect x="244.857" y="243.948" width="56" height="19" rx="9.5" fill="white"/>
</mask>
<g mask="url(#mask1_2726_1930)">
<rect x="244.623" y="216.688" width="56.1067" height="73.5191" rx="28.0533" fill="white"/>
<path d="M266.354 226.258C278.356 226.258 288.085 235.987 288.085 247.988V261.477C288.085 273.478 278.356 283.208 266.354 283.208C254.353 283.208 244.623 273.478 244.623 261.477V247.988C244.623 245.006 245.224 242.164 246.312 239.576C247.44 240.066 248.718 240.346 250.074 240.346C254.623 240.346 258.31 237.232 258.31 233.391C258.309 231.613 257.518 229.992 256.219 228.763C259.245 227.164 262.694 226.258 266.354 226.258Z" fill="black"/>
</g>
<rect x="201" y="308" width="20" height="39" rx="10" fill="#FF7472"/>
</svg>
