<svg width="474" height="474" viewBox="0 0 474 474" fill="none" xmlns="http://www.w3.org/2000/svg">
<circle opacity="0.3" cx="161.193" cy="278.051" r="26.1933" fill="#FF7472"/>
<circle opacity="0.3" cx="313.051" cy="278.193" r="26.1933" fill="#FF7472"/>
<mask id="mask0_2726_1703" style="mask-type:alpha" maskUnits="userSpaceOnUse" x="159" y="208" width="57" height="74">
<rect x="159" y="208" width="56.1067" height="73.5191" rx="28.0533" fill="white"/>
</mask>
<g mask="url(#mask0_2726_1703)">
<rect x="159" y="208" width="56.1067" height="73.5191" rx="28.0533" fill="white"/>
<path d="M195.312 224.569C207.313 224.57 217.042 234.298 217.042 246.3V259.788C217.042 271.79 207.313 281.519 195.312 281.52C183.31 281.52 173.58 271.79 173.58 259.788V246.3C173.58 243.317 174.181 240.475 175.269 237.888C176.397 238.378 177.675 238.657 179.031 238.657C183.58 238.657 187.267 235.543 187.267 231.702C187.267 229.924 186.475 228.304 185.176 227.074C188.202 225.476 191.651 224.569 195.312 224.569Z" fill="black"/>
<path d="M205.957 263.312C205.141 265.277 203.945 267.063 202.438 268.567C200.93 270.071 199.14 271.264 197.17 272.078C195.2 272.893 193.089 273.312 190.957 273.312" stroke="white" stroke-width="6" stroke-linecap="round"/>
</g>
<path d="M304.559 222L266 260H308" stroke="#EFA076" stroke-width="10" stroke-linecap="round" stroke-linejoin="round"/>
<path d="M304.559 222L266 260H308" stroke="black" stroke-opacity="0.2" stroke-width="10" stroke-linecap="round" stroke-linejoin="round"/>
</svg>
