<svg width="474" height="474" viewBox="0 0 474 474" fill="none" xmlns="http://www.w3.org/2000/svg">
<circle opacity="0.3" cx="161.193" cy="278.051" r="26.1933" fill="#FF7472"/>
<circle opacity="0.3" cx="313.051" cy="278.193" r="26.1933" fill="#FF7472"/>
<mask id="mask0_2726_1611" style="mask-type:alpha" maskUnits="userSpaceOnUse" x="159" y="208" width="57" height="74">
<rect x="159" y="208" width="56.1067" height="73.5191" rx="28.0533" fill="white"/>
</mask>
<g mask="url(#mask0_2726_1611)">
<rect x="159" y="208" width="56.1067" height="73.5191" rx="28.0533" fill="white"/>
<path d="M195.312 224.569C207.313 224.57 217.042 234.298 217.042 246.3V259.788C217.042 271.79 207.313 281.519 195.312 281.52C183.31 281.52 173.58 271.79 173.58 259.788V246.3C173.58 243.317 174.181 240.475 175.269 237.888C176.397 238.378 177.675 238.657 179.031 238.657C183.58 238.657 187.267 235.543 187.267 231.702C187.267 229.924 186.475 228.304 185.176 227.074C188.202 225.476 191.651 224.569 195.312 224.569Z" fill="black"/>
<path d="M205.957 263.312C205.141 265.277 203.945 267.063 202.438 268.567C200.93 270.071 199.14 271.264 197.17 272.078C195.2 272.893 193.089 273.312 190.957 273.312" stroke="white" stroke-width="6" stroke-linecap="round"/>
</g>
<mask id="mask1_2726_1611" style="mask-type:alpha" maskUnits="userSpaceOnUse" x="244" y="208" width="57" height="75">
<rect x="244.623" y="208.688" width="56.1067" height="73.5191" rx="28.0533" fill="white"/>
</mask>
<g mask="url(#mask1_2726_1611)">
<rect x="244.623" y="208.688" width="56.1067" height="73.5191" rx="28.0533" fill="white"/>
<path d="M266.354 225.258C278.356 225.258 288.085 234.987 288.085 246.988V260.477C288.085 272.478 278.356 282.208 266.354 282.208C254.353 282.208 244.623 272.478 244.623 260.477V246.988C244.623 244.006 245.224 241.164 246.312 238.576C247.44 239.066 248.718 239.346 250.074 239.346C254.623 239.346 258.31 236.232 258.31 232.391C258.309 230.613 257.518 228.992 256.219 227.763C259.245 226.164 262.694 225.258 266.354 225.258Z" fill="black"/>
<path d="M277 264C276.184 265.965 274.988 267.751 273.481 269.255C271.973 270.76 270.183 271.953 268.213 272.767C266.243 273.581 264.132 274 262 274" stroke="white" stroke-width="6" stroke-linecap="round"/>
</g>
</svg>
