<svg width="474" height="474" viewBox="0 0 474 474" fill="none" xmlns="http://www.w3.org/2000/svg">
<circle opacity="0.3" cx="169.193" cy="278.051" r="26.1933" fill="#FF7472"/>
<circle opacity="0.3" cx="305.051" cy="278.193" r="26.1933" fill="#FF7472"/>
<mask id="mask0_2726_1869" style="mask-type:alpha" maskUnits="userSpaceOnUse" x="166" y="243" width="57" height="16">
<rect x="166.857" y="243.948" width="56" height="15" rx="7.5" fill="white"/>
</mask>
<g mask="url(#mask0_2726_1869)">
<rect x="166.984" y="216.688" width="56.1067" height="73.5191" rx="28.0533" fill="white"/>
<path d="M211.298 226.258C223.299 226.258 233.028 235.987 233.028 247.988V261.477C233.028 273.478 223.299 283.208 211.298 283.208C199.296 283.208 189.566 273.478 189.566 261.477V247.988C189.566 245.006 190.168 242.164 191.255 239.576C192.383 240.066 193.662 240.346 195.018 240.346C199.566 240.346 203.253 237.232 203.253 233.391C203.253 231.613 202.462 229.992 201.162 228.763C204.188 227.164 207.637 226.258 211.298 226.258Z" fill="black"/>
</g>
<mask id="mask1_2726_1869" style="mask-type:alpha" maskUnits="userSpaceOnUse" x="244" y="243" width="57" height="16">
<rect x="244.857" y="243.948" width="56" height="15" rx="7.5" fill="white"/>
</mask>
<g mask="url(#mask1_2726_1869)">
<rect x="244.623" y="216.688" width="56.1067" height="73.5191" rx="28.0533" fill="white"/>
<path d="M287.731 226.258C299.733 226.258 309.462 235.987 309.462 247.988V261.477C309.462 273.478 299.733 283.208 287.731 283.208C275.73 283.208 266 273.478 266 261.477V247.988C266 245.006 266.601 242.164 267.688 239.576C268.817 240.066 270.095 240.346 271.451 240.346C276 240.346 279.687 237.232 279.687 233.391C279.686 231.613 278.895 229.992 277.596 228.763C280.622 227.164 284.071 226.258 287.731 226.258Z" fill="black"/>
</g>
</svg>
