<svg width="474" height="474" viewBox="0 0 474 474" fill="none" xmlns="http://www.w3.org/2000/svg">
<path d="M402.186 156.578C430.525 156.578 453.498 179.551 453.498 207.89C453.498 228.139 441.769 245.648 424.734 253.995C422.337 274.99 407.266 292.134 387.362 297.594C386.842 291.627 385.543 285.881 383.57 280.46C382.371 277.165 381.868 273.64 382.267 270.156C382.757 265.867 383.01 261.505 383.01 257.085V224.918C383.01 204.681 377.732 185.676 368.479 169.205C377.495 161.342 389.283 156.578 402.186 156.578ZM72.8125 156.578C87.0271 156.578 99.8893 162.36 109.182 171.698C100.773 187.582 96.0098 205.694 96.0098 224.918V257.085C96.0098 258.725 96.0443 260.357 96.1133 261.979C96.2777 265.849 95.3421 269.682 93.5947 273.139C89.8628 280.522 87.4488 288.685 86.6602 297.317C67.2407 291.571 52.622 274.646 50.2637 253.995C33.2292 245.648 21.5 228.139 21.5 207.89C21.5 179.551 44.4734 156.578 72.8125 156.578Z" fill="black"/>
<path d="M383.357 219.552C383.357 156.637 332.355 105.635 269.44 105.635H214.5C151.586 105.635 95.6668 156.637 95.6668 219.552C95.6668 233.842 95.1235 248.229 95.7939 262.508C128.806 262.508 159.401 245.199 176.404 216.902L199.951 177.713C207.704 164.81 224.965 161.536 236.905 170.704L242.5 175L247.349 171.13C258.965 161.86 276.111 165.124 283.508 178.013L306.437 217.965C322.249 245.517 351.59 262.508 383.357 262.508V219.552Z" fill="black"/>
</svg>
