<svg width="474" height="474" viewBox="0 0 474 474" fill="none" xmlns="http://www.w3.org/2000/svg">
<path d="M396.635 381.437C397.607 386.947 393.368 392 387.772 392H356.226C349.636 383.583 342.016 376.012 333.555 369.477C359.158 364.328 379.513 344.686 385.701 319.476L396.635 381.437ZM92.0557 330.409C100.757 350.251 118.733 365.101 140.498 369.478C132.037 376.012 124.419 383.584 117.829 392H91.7686C86.1621 392 81.9194 386.929 82.9092 381.411L92.0557 330.409Z" fill="black"/>
<path fill-rule="evenodd" clip-rule="evenodd" d="M225.446 45.2855C234.044 42.3752 243.13 41.1863 252.187 41.7875C261.243 42.3887 270.093 44.7681 278.23 48.7894L271.619 62.1654C277.895 59.1693 284.598 57.1321 291.504 56.1332C300.487 54.8339 309.638 55.3168 318.435 57.5541C327.231 59.7914 335.502 63.7389 342.772 69.1723C350.043 74.6055 356.172 81.4181 360.811 89.2201L354.16 93.1732C371.661 104.595 383.229 124.35 383.229 146.807V203.316C366.047 203.316 352.117 189.386 352.117 172.204V150.499C349.006 154.881 345.509 158.993 341.66 162.781C333.072 171.232 322.903 177.909 311.734 182.431C300.565 186.953 288.615 189.23 276.565 189.133C264.517 189.036 252.605 186.568 241.51 181.868C233.205 178.349 225.48 173.632 218.575 167.88L221.339 183.217C212.406 184.827 203.244 184.661 194.375 182.73C185.506 180.799 177.104 177.14 169.649 171.961C165.876 169.34 162.383 166.355 159.217 163.056C152.874 171.983 142.45 177.807 130.666 177.807C127.762 177.807 124.942 177.451 122.244 176.785C122.218 191.442 110.329 203.316 95.666 203.316V146.807C95.666 146.033 95.6798 145.263 95.707 144.496C95.6805 143.936 95.666 143.373 95.666 142.807C95.666 138.951 96.2905 135.24 97.4424 131.771C101.604 114.486 112.781 99.9331 127.793 91.2953L120.633 81.5082C123.651 79.2999 127.075 77.7078 130.709 76.8227C134.343 75.9375 138.116 75.7772 141.812 76.35C144.729 76.8022 147.553 77.7058 150.186 79.0219C150.864 77.9173 151.573 76.8302 152.314 75.7631C157.493 68.3084 164.089 61.946 171.726 57.0404C179.362 52.1348 187.891 48.7819 196.824 47.1723L199.362 61.2611C200.244 60.4012 201.15 59.5637 202.079 58.7504C208.908 52.7714 216.849 48.196 225.446 45.2855Z" fill="black"/>
</svg>
