<svg width="474" height="474" viewBox="0 0 474 474" fill="none" xmlns="http://www.w3.org/2000/svg">
<path d="M396.637 381.437C397.609 386.947 393.369 392 387.773 392H356.228C349.638 383.583 342.018 376.012 333.557 369.477C359.16 364.328 379.515 344.686 385.703 319.476L396.637 381.437ZM92.0576 330.409C100.759 350.251 118.735 365.101 140.5 369.478C132.039 376.012 124.42 383.584 117.83 392H91.7695C86.1632 392 81.9214 386.929 82.9111 381.411L92.0576 330.409Z" fill="black"/>
<path d="M247.608 41.6361C256.685 41.6361 265.673 43.4243 274.059 46.8978C280.033 49.3725 285.618 52.6684 290.657 56.6801L292.371 47.1703C301.304 48.78 309.833 52.1338 317.47 57.0394C325.107 61.945 331.703 68.3065 336.881 75.7611C337.465 76.6026 338.03 77.4567 338.575 78.3217C340.767 77.3812 343.074 76.716 345.441 76.349C349.137 75.7762 352.91 75.9375 356.544 76.8226C360.178 77.7078 363.602 79.2997 366.621 81.5082L356.771 94.9701C372.803 106.601 383.229 125.486 383.229 146.807V203.316C366.047 203.316 352.117 189.386 352.117 172.203V168.194C349.705 168.917 347.148 169.307 344.5 169.307C338.648 169.307 333.24 167.409 328.855 164.197C325.992 167.045 322.879 169.645 319.546 171.96C312.091 177.139 303.689 180.798 294.82 182.729C285.952 184.66 276.789 184.826 267.856 183.216L275.599 140.246L213.708 140.876L221.339 183.217C212.406 184.827 203.244 184.661 194.375 182.73C185.506 180.799 177.104 177.14 169.649 171.961C163.434 167.644 157.979 162.34 153.493 156.27C148.881 164.072 140.386 169.307 130.666 169.307C127.722 169.307 124.891 168.825 122.245 167.939V176.736C122.245 191.415 110.345 203.316 95.666 203.316V146.807C95.6661 123.066 108.593 102.343 127.793 91.2953L120.633 81.5092C123.651 79.3007 127.076 77.7078 130.71 76.8226C134.344 75.9375 138.117 75.7771 141.812 76.35C144.73 76.8022 147.553 77.7059 150.186 79.0219C150.864 77.9173 151.573 76.8302 152.314 75.7631C157.493 68.3084 164.089 61.946 171.726 57.0404C179.362 52.1348 187.891 48.7819 196.824 47.1722L199.362 61.2601C205.647 55.1336 213.044 50.2587 221.158 46.8978C229.544 43.4243 238.532 41.6361 247.608 41.6361Z" fill="black"/>
</svg>
