<svg width="474" height="474" viewBox="0 0 474 474" fill="none" xmlns="http://www.w3.org/2000/svg">
<path d="M88.6426 286.139C87.166 291.688 86.377 297.518 86.377 303.533C86.377 334.836 107.697 361.159 136.608 368.776C120.368 382.349 107.543 399.873 99.6123 419.871C91.8126 424.659 82.6358 427.421 72.8125 427.421C44.4736 427.421 21.5002 404.448 21.5 376.109C21.5 355.86 33.2291 338.35 50.2637 330.003C52.7021 308.656 68.2418 291.29 88.6426 286.139ZM386.321 290.3C401.15 297.981 411.756 312.681 413.734 330.003C430.769 338.35 442.498 355.86 442.498 376.109C442.498 404.448 419.524 427.421 391.186 427.421C386.037 427.421 381.066 426.663 376.378 425.251C368.701 403.015 355.07 383.553 337.389 368.776C366.3 361.159 387.62 334.836 387.62 303.533C387.62 299.004 387.173 294.579 386.321 290.3Z" fill="black"/>
<path d="M383.357 219.552C383.357 156.637 332.355 105.635 269.44 105.635H214.5C151.586 105.635 95.6668 156.637 95.6668 219.552C95.6668 233.842 95.1235 248.229 95.7939 262.508C128.806 262.508 159.401 245.199 176.404 216.902L199.951 177.713C207.704 164.81 224.965 161.536 236.905 170.704L242.5 175L247.349 171.13C258.965 161.86 276.111 165.124 283.508 178.013L306.437 217.965C322.249 245.517 351.59 262.508 383.357 262.508V219.552Z" fill="black"/>
</svg>
