<svg width="474" height="474" viewBox="0 0 474 474" fill="none" xmlns="http://www.w3.org/2000/svg">
<path d="M224.78 64.4777C233.378 61.5674 242.464 60.3794 251.521 60.9806C260.577 61.5818 269.427 63.9612 277.564 67.9825L270.953 81.3585C277.229 78.3623 283.932 76.3242 290.838 75.3253C299.821 74.026 308.972 74.509 317.769 76.7462C326.565 78.9836 334.836 82.932 342.106 88.3654C349.377 93.7987 355.506 100.611 360.145 108.413L353.494 112.365C370.996 123.787 382.563 143.542 382.563 166V222.508C365.381 222.508 351.451 208.578 351.451 191.396V169.692C348.34 174.074 344.843 178.185 340.994 181.973C332.406 190.424 322.237 197.102 311.068 201.623C299.899 206.145 287.949 208.423 275.899 208.326C263.85 208.23 251.939 205.76 240.844 201.06C232.539 197.541 224.813 192.824 217.908 187.072L220.673 202.41C211.74 204.02 202.578 203.854 193.709 201.923C184.84 199.992 176.438 196.332 168.983 191.153C165.21 188.532 161.717 185.547 158.551 182.248C152.208 191.175 141.785 196.999 130 196.999C127.096 196.999 124.276 196.643 121.578 195.977C121.552 210.634 109.663 222.508 95 222.508V166C95 165.226 95.0138 164.456 95.041 163.689C95.0144 163.129 95 162.565 95 161.999C95.0001 158.144 95.6242 154.435 96.7754 150.967C100.937 133.68 112.114 119.127 127.127 110.488L119.967 100.701C122.985 98.493 126.409 96.9009 130.043 96.0157C133.677 95.1306 137.45 94.9693 141.146 95.5421C144.063 95.9943 146.887 96.8991 149.519 98.215C150.197 97.11 150.907 96.0227 151.648 94.9552C156.827 87.5006 163.423 81.1391 171.06 76.2335C178.696 71.3279 187.225 67.9741 196.158 66.3644L198.696 80.4532C199.578 79.5934 200.484 78.7558 201.413 77.9425C208.242 71.9636 216.183 67.3881 224.78 64.4777Z" fill="black"/>
</svg>
