<svg width="474" height="474" viewBox="0 0 474 474" fill="none" xmlns="http://www.w3.org/2000/svg">
<path d="M385.847 288.1C396.615 293.534 404 304.693 404 317.578C404 330.096 397.03 340.985 386.759 346.578C397.03 352.171 404 363.06 404 375.578C404 388.096 397.03 398.985 386.759 404.578C397.03 410.171 404 421.06 404 433.578C404 447.446 395.444 459.314 383.323 464.197C382.501 426.396 365.292 392.635 338.517 369.73C338.597 369.28 338.687 368.834 338.785 368.391C366.985 360.306 387.621 334.33 387.621 303.533C387.621 298.223 387.007 293.056 385.847 288.1ZM88.0127 288.704C86.9425 293.475 86.378 298.438 86.3779 303.533C86.3779 334.716 107.536 360.955 136.278 368.685C136.301 368.79 136.321 368.895 136.343 369C109.176 391.831 91.6363 425.745 90.6865 463.779C79.0928 458.661 71 447.065 71 433.578C71 421.06 77.9699 410.171 88.2402 404.578C77.9699 398.985 71 388.095 71 375.578C71 363.06 77.9699 352.171 88.2402 346.578C77.9699 340.985 71 330.095 71 317.578C71 305.153 77.8673 294.333 88.0127 288.704Z" fill="black"/>
<path d="M383.149 219.552C383.149 156.637 332.147 105.635 269.232 105.635H209.376C146.462 105.635 95.459 156.637 95.459 219.552V257.086C95.459 258.904 95.5017 260.711 95.5861 262.508L106.458 235.001L122.165 223.392L123.963 189.808C124.418 181.316 131.436 174.664 139.94 174.664H181.59H209.997H211.239C219.328 174.664 226.874 170.588 231.309 163.823L238.405 153L245.502 163.823C249.937 170.588 257.483 174.664 265.572 174.664H266.813H295.221H336.037C344.874 174.664 352.037 181.827 352.037 190.664V223.392L369.202 235.001L382.336 270.76C382.873 266.277 383.149 261.714 383.149 257.086V219.552Z" fill="black"/>
</svg>
