<svg width="474" height="474" viewBox="0 0 474 474" fill="none" xmlns="http://www.w3.org/2000/svg">
<path d="M239.885 80C348.667 80 436.835 168.218 436.773 277L436.727 360.961C436.718 376.449 424.16 389 408.672 389H353.667C348.753 383.117 343.322 377.679 337.441 372.762C366.341 365.124 387.647 338.801 387.647 307.5C387.647 307.163 387.644 306.827 387.639 306.491C399.909 302.43 408.763 290.868 408.763 277.235V251.749C408.763 236.578 397.799 223.969 383.363 221.41C382.324 159.394 331.73 109.44 269.466 109.44H209.609C146.695 109.441 95.6924 160.442 95.6924 223.356V260.891C95.6924 278.969 99.9052 296.063 107.4 311.247C108.419 313.31 109.08 315.531 109.429 317.805C112.886 340.377 127.526 359.266 147.515 368.643C139.615 374.584 132.428 381.422 126.099 389H71.0977C55.6097 389 43.0518 376.449 43.043 360.961L42.9961 277C42.9348 168.218 131.103 80 239.885 80Z" fill="black"/>
<path d="M383.358 219.552C383.358 156.637 332.355 105.635 269.441 105.635H209.584C146.67 105.635 95.6675 156.637 95.6674 219.552V257.086C95.6674 258.904 95.5817 386.703 95.666 388.5H176.41L176.41 174.664V152L197.694 174.974C202.236 179.877 208.617 182.664 215.3 182.664H227.022H255.43H336.246C345.082 182.664 352.246 189.827 352.246 198.664V223.392L369.411 235.001L382.544 270.76C383.081 266.277 383.358 261.714 383.358 257.086V219.552Z" fill="black"/>
</svg>
