<svg width="474" height="474" viewBox="0 0 474 474" fill="none" xmlns="http://www.w3.org/2000/svg">
<path d="M247.608 41.6361C256.685 41.6361 265.673 43.4243 274.059 46.8978C278.921 48.9118 283.525 51.4701 287.787 54.515L289.255 46.3715C297.605 47.8761 305.577 51.0105 312.716 55.5961C319.854 60.1816 326.02 66.1287 330.86 73.097C332.423 75.346 333.836 77.6876 335.096 80.1058C338.267 78.1933 341.781 76.9163 345.441 76.349C349.137 75.7762 352.91 75.9375 356.544 76.8226C360.178 77.7078 363.602 79.2997 366.621 81.5082L356.771 94.9701C372.803 106.601 383.229 125.486 383.229 146.807V203.316C366.047 203.316 352.117 189.386 352.117 172.203V168.194C349.705 168.917 347.148 169.307 344.5 169.307C335.077 169.307 326.803 164.388 322.104 156.978C319.78 159.168 317.291 161.189 314.656 163.02C307.688 167.86 299.834 171.281 291.544 173.086C283.254 174.892 274.689 175.046 266.339 173.541L272.332 140.28L216.964 140.843L222.856 173.542C214.506 175.047 205.942 174.893 197.651 173.087C189.361 171.282 181.507 167.861 174.539 163.021C167.592 158.195 161.66 152.052 157.08 144.941C155.993 158.579 144.583 169.307 130.666 169.307C127.722 169.307 124.891 168.825 122.245 167.939V176.736C122.245 191.415 110.345 203.316 95.666 203.316V146.807C95.6661 123.066 108.593 102.343 127.793 91.2953L120.633 81.5092C123.651 79.3007 127.076 77.7078 130.71 76.8226C134.344 75.9375 138.117 75.7771 141.812 76.35C145.508 76.9228 149.056 78.2179 152.251 80.1615C152.716 80.4442 153.17 80.7421 153.617 81.0502C154.995 78.2964 156.57 75.6383 158.335 73.098C163.175 66.1297 169.341 60.1826 176.479 55.597C183.618 51.0115 191.59 47.8771 199.94 46.3724L202.158 58.682C207.802 53.7557 214.218 49.7727 221.158 46.8978C229.544 43.4243 238.532 41.6361 247.608 41.6361Z" fill="black"/>
</svg>
