<svg width="474" height="474" viewBox="0 0 474 474" fill="none" xmlns="http://www.w3.org/2000/svg">
<path d="M383.357 179.552C383.357 116.637 332.355 65.6348 269.44 65.6348H214.5C151.586 65.6348 95.6668 116.637 95.6668 179.552C95.6668 193.842 95.1235 210.229 95.7939 224.508C124.098 224.508 150.593 210.593 166.659 187.29L193.103 148.932C200.639 138.001 215.365 134.794 226.764 141.602L242.5 151L257.746 141.619C268.749 134.848 283.136 137.967 290.347 148.688L315.801 186.532C330.928 209.021 356.254 222.508 383.357 222.508V179.552Z" fill="black"/>
<path d="M250.987 94.7905C247.968 92.582 245.414 89.8006 243.47 86.6051C241.527 83.4096 240.231 79.8625 239.658 76.1664C239.086 72.4703 239.246 68.6975 240.132 65.0636C241.017 61.4296 242.609 58.0055 244.817 54.9869C247.026 51.9683 249.807 49.4142 253.003 47.4705C256.198 45.5268 259.745 44.2315 263.442 43.6587C267.138 43.0858 270.91 43.2465 274.544 44.1317C278.178 45.0169 281.602 46.6092 284.621 48.8176L267.804 71.804L250.987 94.7905Z" fill="black"/>
<path d="M233.621 94.79C236.639 92.5815 239.193 89.8001 241.137 86.6046C243.081 83.4091 244.376 79.862 244.949 76.1659C245.522 72.4698 245.361 68.697 244.476 65.0631C243.591 61.4291 241.998 58.005 239.79 54.9864C237.582 51.9678 234.8 49.4137 231.605 47.47C228.409 45.5263 224.862 44.2311 221.166 43.6582C217.47 43.0853 213.697 43.246 210.063 44.1312C206.429 45.0164 203.005 46.6087 199.986 48.8171L216.804 71.8036L233.621 94.79Z" fill="black"/>
</svg>
