<svg width="474" height="474" viewBox="0 0 474 474" fill="none" xmlns="http://www.w3.org/2000/svg">
<g clip-path="url(#clip0_2728_4710)">
<path d="M239.884 80C348.671 80 436.847 168.213 436.802 277L436.726 458.241C436.717 479.097 419.807 496 398.951 496H383.384V471C383.384 431.534 365.521 396.242 337.441 372.762C366.341 365.124 387.647 338.801 387.647 307.5C387.647 307.163 387.644 306.827 387.639 306.491C399.909 302.43 408.763 290.868 408.763 277.235V251.749C408.763 236.578 397.799 223.969 383.363 221.41C382.324 159.394 331.73 109.439 269.466 109.439H209.609C146.695 109.44 95.6924 160.442 95.6924 223.356V260.891C95.6924 271.163 97.0515 281.118 99.6006 290.585C100.356 293.389 100.506 296.319 100.152 299.201C99.819 301.921 99.6475 304.69 99.6475 307.5C99.6475 336.794 118.309 361.729 144.393 371.067C115.125 394.525 96.3838 430.574 96.3838 471V496H80.8164C59.9605 496 43.0507 479.097 43.042 458.241L42.9668 277C42.9213 168.213 131.097 80.0001 239.884 80Z" fill="black"/>
<path d="M383.358 219.552C383.358 156.637 332.355 105.635 269.441 105.635H209.584C146.67 105.635 95.6675 156.637 95.6674 219.552V257.086C95.6674 258.904 95.5817 518.203 95.666 520H176.41L176.41 174.664V152L197.694 174.974C202.236 179.877 208.617 182.664 215.3 182.664H227.022H255.43H336.246C345.082 182.664 352.246 189.827 352.246 198.664V223.392L369.41 235.001L382.544 270.76C383.081 266.277 383.358 261.714 383.358 257.086V219.552Z" fill="black"/>
</g>
<defs>
<clipPath id="clip0_2728_4710">
<rect width="474" height="474" fill="white"/>
</clipPath>
</defs>
</svg>
