<svg width="474" height="474" viewBox="0 0 474 474" fill="none" xmlns="http://www.w3.org/2000/svg">
<path d="M359 50.0004C372.255 50.0004 383 60.7455 383 74.0004V143H382.563V239L368.616 203.001L351.451 191.393V158.664C351.451 150.952 345.993 144.513 338.729 143H136.083C129.115 144.45 123.772 150.435 123.377 157.809L121.579 191.393L105.872 203.001L95 230.508V70.0004H95.334C97.2384 58.6497 107.108 50.0004 119 50.0004C130.892 50.0004 140.762 58.6497 142.666 70.0004H143.334C145.238 58.6497 155.108 50.0004 167 50.0004C178.892 50.0004 188.762 58.6497 190.666 70.0004H191.334C193.238 58.6497 203.108 50.0004 215 50.0004C226.892 50.0004 236.762 58.6497 238.666 70.0004H239.334C241.238 58.6497 251.108 50.0004 263 50.0004C274.892 50.0004 284.762 58.6497 286.666 70.0004H287.334C289.238 58.6497 299.108 50.0004 311 50.0004C322.892 50.0004 332.762 58.6497 334.666 70.0004H335.334C337.238 58.6497 347.108 50.0004 359 50.0004Z" fill="black"/>
</svg>
