<svg width="474" height="474" viewBox="0 0 474 474" fill="none" xmlns="http://www.w3.org/2000/svg">
<path d="M332.983 84.1953C374.534 84.1955 410.567 112.922 419.825 153.428L435.176 220.589C436.491 226.343 438.318 231.969 440.636 237.398L461.384 286.001C465.749 296.228 468 307.232 468 318.352V322.138C468 338.24 462.565 353.871 452.576 366.5C442.587 379.129 437.152 394.76 437.152 410.862V462.423C437.152 468.873 431.85 474 425.399 474H383.357V467.035C383.357 427.558 365.484 392.256 337.39 368.776C366.301 361.16 387.621 334.837 387.621 303.533C387.621 303.251 387.619 302.968 387.615 302.687C399.884 298.624 408.736 287.062 408.736 273.431V247.944C408.736 232.774 397.773 220.164 383.337 217.605C382.324 157.145 334.211 108.15 274.103 105.73L282.044 100.196C296.988 89.7799 314.767 84.1953 332.983 84.1953ZM69.9414 140.425C83.6854 95.84 126.692 66.9017 173.17 70.9648L204.579 73.7109C223.149 75.3344 240.883 82.1672 255.741 93.4238L271.896 105.663C271.079 105.646 270.26 105.636 269.439 105.636H209.583C147.406 105.636 96.8642 155.45 95.6885 217.346C80.3869 219.147 68.5156 232.159 68.5156 247.944V273.431C68.5156 285.835 75.8467 296.525 86.4111 301.411C86.3894 302.116 86.3779 302.823 86.3779 303.533C86.3779 334.836 107.698 361.159 136.609 368.776C108.516 392.256 90.6436 427.558 90.6436 467.035V474H54.3164C47.8659 474 42.5625 468.873 42.5625 462.423V401.912C42.5625 388.951 40.0177 376.117 35.0723 364.137L24.251 337.921C12.4386 309.306 14.6911 276.812 30.3398 250.102L36.7588 239.146C40.6153 232.563 43.6978 225.556 45.9453 218.266L69.9414 140.425Z" fill="black"/>
<path d="M383.356 219.552C383.356 156.637 332.354 105.635 269.439 105.635H209.583C146.669 105.635 95.6661 156.637 95.666 219.552V257.086C95.666 258.904 95.7087 260.711 95.7931 262.508L106.665 235.001L122.372 223.392L124.17 189.808C124.625 181.316 131.643 174.664 140.147 174.664H154.205H155.446C163.535 174.664 171.081 170.588 175.516 163.823L182.612 153L189.709 163.823C194.144 170.588 201.69 174.664 209.779 174.664H211.02H239.428H336.244C345.081 174.664 352.244 181.827 352.244 190.664V223.392L369.409 235.001L382.543 270.76C383.08 266.277 383.356 261.714 383.356 257.086V219.552Z" fill="black"/>
</svg>
