<svg width="474" height="474" viewBox="0 0 474 474" fill="none" xmlns="http://www.w3.org/2000/svg">
<path d="M240.5 52C261.763 52 279 69.237 279 90.5C279 111.763 261.763 129 240.5 129L233.5 129C212.237 129 195 111.763 195 90.5C195 69.237 212.237 52 233.5 52L240.5 52Z" fill="black"/>
<path d="M383.149 219.552C383.149 156.637 332.147 105.635 269.232 105.635H209.376C146.462 105.635 95.459 156.637 95.459 219.552V257.086C95.459 258.904 95.5017 260.711 95.5861 262.508L106.458 235.001L122.165 223.392L123.963 189.808C124.418 181.316 131.436 174.664 139.94 174.664H181.59H209.997H211.239C219.328 174.664 226.874 170.588 231.309 163.823L238.405 153L245.502 163.823C249.937 170.588 257.483 174.664 265.572 174.664H266.813H295.221H336.037C344.874 174.664 352.037 181.827 352.037 190.664V223.392L369.202 235.001L382.336 270.76C382.873 266.277 383.149 261.714 383.149 257.086V219.552Z" fill="black"/>
</svg>
