<svg width="474" height="474" viewBox="0 0 474 474" fill="none" xmlns="http://www.w3.org/2000/svg">
<g clip-path="url(#clip0_2728_5592)">
<path d="M251.5 52C272.763 52 290 69.237 290 90.5C290 111.763 272.763 129 251.5 129L222.5 129C201.237 129 184 111.763 184 90.5C184 69.237 201.237 52 222.5 52L251.5 52Z" fill="black"/>
<path d="M383.149 219.552C383.149 156.637 332.147 105.635 269.232 105.635H209.376C146.462 105.635 95.459 156.637 95.459 219.552V257.086C95.459 258.904 95.5017 260.711 95.5861 262.508C113.761 250.983 124.774 230.96 124.774 209.439V190.411C124.774 181.714 131.824 174.664 140.521 174.664H181.59H209.997H211.239C219.328 174.664 226.874 170.588 231.309 163.823L238.405 153L245.502 163.823C249.937 170.588 257.483 174.664 265.572 174.664H266.813H295.221H335.96C344.839 174.664 352.037 181.862 352.037 190.741V203.576C352.037 229.279 363.071 253.745 382.336 270.76C382.873 266.277 383.149 261.714 383.149 257.086V219.552Z" fill="black"/>
<circle cx="150" cy="163.707" r="28" fill="black"/>
<path d="M236.672 199.117C227.739 200.726 218.577 200.561 209.708 198.63C200.839 196.698 192.437 193.039 184.983 187.861C177.528 182.682 171.166 176.087 166.26 168.45C161.355 160.813 158.002 152.284 156.392 143.352L224.414 131.094L236.672 199.117Z" fill="black"/>
<path d="M366.24 168.067C359.461 177.173 350.956 184.856 341.208 190.675C331.46 196.495 320.662 200.338 309.429 201.984C298.196 203.63 286.749 203.048 275.742 200.27C264.734 197.493 254.381 192.574 245.274 185.795C236.167 179.017 228.485 170.511 222.665 160.763C216.846 151.015 213.003 140.217 211.357 128.984C209.711 117.752 210.293 106.305 213.071 95.2969C215.848 84.2892 220.767 73.9364 227.546 64.8296L296.893 116.448L366.24 168.067Z" fill="black"/>
<path d="M154.523 100.696C159.134 99.6541 163.905 99.5302 168.564 100.332C173.223 101.133 177.679 102.845 181.676 105.368C185.674 107.892 189.135 111.178 191.863 115.039C194.591 118.9 196.531 123.261 197.573 127.872" stroke="black" stroke-width="12" stroke-linecap="round"/>
<path d="M318.629 86.2806C314.358 88.3057 310.526 91.1524 307.355 94.6581C304.183 98.1638 301.733 102.26 300.145 106.712C298.556 111.165 297.86 115.887 298.096 120.608C298.333 125.33 299.496 129.959 301.522 134.23" stroke="black" stroke-width="12" stroke-linecap="round"/>
</g>
<defs>
<clipPath id="clip0_2728_5592">
<rect width="474" height="474" fill="white"/>
</clipPath>
</defs>
</svg>
