<svg width="474" height="474" viewBox="0 0 474 474" fill="none" xmlns="http://www.w3.org/2000/svg">
<path d="M239.885 80C348.667 80 436.835 168.218 436.774 277L436.727 363.688C436.718 379.327 424.038 392 408.399 392H356.224C350.652 384.885 344.347 378.373 337.417 372.581C366.328 364.964 387.648 338.641 387.648 307.338C387.648 307.055 387.646 306.773 387.643 306.491C399.911 302.429 408.764 290.867 408.764 277.235V251.749C408.764 236.578 397.8 223.969 383.364 221.41C382.325 159.394 331.731 109.44 269.467 109.44H209.61C147.433 109.44 96.8915 159.254 95.7158 221.15C80.414 222.951 68.543 235.963 68.543 251.749V277.235C68.543 289.64 75.8738 300.33 86.4385 305.216C86.4167 305.921 86.4053 306.628 86.4053 307.338C86.4053 338.641 107.725 364.964 136.637 372.581C129.707 378.373 123.401 384.885 117.83 392H71.3701C55.7317 392 43.0518 379.327 43.043 363.688L42.9941 277C42.9335 168.218 131.102 80 239.885 80Z" fill="black"/>
<path d="M383.356 219.552C383.356 156.637 332.354 105.635 269.439 105.635H209.583C146.669 105.635 95.6661 156.637 95.666 219.552V257.086C95.666 258.904 95.7087 260.711 95.7931 262.508L106.665 235.001L122.372 223.392L124.17 189.808C124.625 181.316 131.643 174.664 140.147 174.664H181.797H210.205H211.446C219.535 174.664 227.081 170.588 231.516 163.823L238.612 153L245.709 163.823C250.144 170.588 257.69 174.664 265.779 174.664H267.02H295.428H336.244C345.081 174.664 352.244 181.827 352.244 190.664V223.392L369.409 235.001L382.543 270.76C383.08 266.277 383.356 261.714 383.356 257.086V219.552Z" fill="black"/>
</svg>
