<svg width="474" height="474" viewBox="0 0 474 474" fill="none" xmlns="http://www.w3.org/2000/svg">
<path d="M382.565 214.789C409.55 223.806 429 249.28 429 279.297C429 313.01 404.466 340.993 372.277 346.365C381.863 334.715 387.621 319.798 387.621 303.533C387.621 295.429 386.191 287.659 383.571 280.461C382.372 277.165 381.869 273.641 382.268 270.156C382.758 265.867 383.011 261.506 383.011 257.086V224.919C383.011 221.505 382.859 218.126 382.565 214.789ZM96.4863 214.448C96.1721 217.896 96.0107 221.389 96.0107 224.919V257.086C96.0107 258.725 96.0453 260.357 96.1143 261.979C96.2787 265.85 95.3432 269.683 93.5957 273.14C88.9788 282.273 86.378 292.6 86.3779 303.533C86.3779 319.345 91.8202 333.885 100.931 345.387C71.131 338.166 49 311.316 49 279.297C49.0003 248.891 68.9574 223.149 96.4863 214.448Z" fill="black"/>
<path d="M383.357 179.552C383.357 116.637 332.355 65.6348 269.44 65.6348H214.5C151.586 65.6348 95.6668 116.637 95.6668 179.552C95.6668 193.842 95.1235 210.229 95.7939 224.508C124.098 224.508 150.593 210.593 166.659 187.29L193.103 148.932C200.639 138.001 215.365 134.794 226.764 141.602L242.5 151L257.746 141.619C268.749 134.848 283.136 137.967 290.347 148.688L315.801 186.532C330.928 209.021 356.254 222.508 383.357 222.508V179.552Z" fill="black"/>
</svg>
