<svg width="474" height="474" viewBox="0 0 474 474" fill="none" xmlns="http://www.w3.org/2000/svg">
<path opacity="0.2" d="M257.563 70.0004C326.599 70.0005 382.563 125.965 382.563 195V222.508H374.131C361.605 222.508 351.451 212.354 351.451 199.828C351.451 194.782 347.333 190.706 342.287 190.757L129.949 192.914C125.313 192.962 121.579 196.733 121.579 201.37C121.579 213.044 112.116 222.508 100.441 222.508H95V195C95 125.965 150.964 70.0004 220 70.0004H257.563Z" fill="black"/>
<path d="M259.563 70C327.494 70.0001 382.563 125.069 382.563 193H95C95 125.069 150.069 70 218 70H259.563Z" fill="black"/>
</svg>
