<svg width="474" height="474" viewBox="0 0 474 474" fill="none" xmlns="http://www.w3.org/2000/svg">
<path d="M223.499 48.9996C261.771 48.9996 295.638 67.8597 316.313 96.7925C326.394 91.8041 337.747 88.9996 349.756 88.9996C391.453 88.9996 425.256 122.802 425.256 164.5C425.256 176.148 422.617 187.18 417.906 197.031C430.076 210.363 437.498 228.104 437.498 247.578C437.498 280.839 415.846 309.041 385.868 318.863C387.013 313.938 387.62 308.806 387.62 303.533C387.62 303.25 387.618 302.968 387.614 302.686C399.883 298.624 408.735 287.062 408.735 273.43V247.944C408.735 232.576 397.485 219.837 382.771 217.511C378.955 158.05 329.519 111.002 269.094 111.002H209.927C149.579 111.002 100.192 157.929 96.2627 217.282C80.6844 218.82 68.5149 231.961 68.5146 247.944V273.43C68.5146 285.834 75.8458 296.525 86.4102 301.411C86.3884 302.115 86.377 302.823 86.377 303.533C86.377 307.472 86.7153 311.333 87.3633 315.087C61.7929 312.171 41.9297 290.46 41.9297 264.109C41.9297 253.36 45.237 243.384 50.8867 235.139C43.6244 221.687 39.5001 206.273 39.5 189.891C39.5 138.077 80.7629 95.9529 132.057 94.9127C152.84 67.0454 186.062 48.9996 223.499 48.9996Z" fill="black"/>
<path d="M383.357 217.5C383.357 154.586 332.354 105.635 269.44 105.635H214.5C151.585 105.635 95.6661 154.586 95.666 217.5H126.715C160.903 217.5 192.157 198.184 207.447 167.605C211.104 160.291 220.522 158.124 227.008 163.104L242.5 175L252.899 166.7C262.291 159.205 275.833 160.041 284.233 168.633L296.1 180.774C319.058 204.26 350.514 217.5 383.357 217.5Z" fill="black"/>
</svg>
