<svg width="474" height="474" viewBox="0 0 474 474" fill="none" xmlns="http://www.w3.org/2000/svg">
<path d="M174.41 79.9996C194.96 79.9996 215 86.395 231.752 98.2974L244 107C260.276 89.7661 282.934 79.9996 306.639 79.9996H321.115C365.885 79.9996 405.084 110.046 416.716 153.279L437.152 229.239L461.384 286.002C465.749 296.228 468 307.233 468 318.352V322.137C468 338.24 462.565 353.87 452.576 366.5C442.587 379.129 437.152 394.761 437.152 410.863V462.423C437.152 468.874 431.85 474 425.399 474H383.357V467.035C383.357 427.557 365.484 392.256 337.39 368.776C366.301 361.159 387.621 334.836 387.621 303.533C387.621 295.429 386.191 287.659 383.571 280.461C382.372 277.165 381.869 273.64 382.268 270.156C382.758 265.867 383.011 261.505 383.011 257.086V224.919C383.01 162.004 332.009 111.002 269.095 111.002H209.928C147.014 111.002 96.011 162.004 96.0107 224.919V257.086C96.0107 258.725 96.0453 260.357 96.1143 261.979C96.2787 265.849 95.3431 269.682 93.5957 273.139C88.9789 282.273 86.3781 292.599 86.3779 303.533C86.3779 334.836 107.698 361.159 136.609 368.776C108.516 392.256 90.6437 427.558 90.6436 467.035V474H54.3154C47.8653 473.999 42.5628 468.874 42.5625 462.423V401.913C42.5625 388.952 40.0178 376.116 35.0723 364.136L24.25 337.921C12.4375 309.306 14.6908 276.812 30.3398 250.101L37.5156 237.854C40.8721 232.125 43.6433 226.073 45.7881 219.789L70.625 147.021C84.3054 106.94 121.966 79.9997 164.317 79.9996H174.41Z" fill="black"/>
<path d="M383.357 219.552C383.357 156.637 332.355 105.635 269.44 105.635H214.5C151.586 105.635 95.6668 156.637 95.6668 219.552C95.6668 233.842 95.1235 248.229 95.7939 262.508C128.806 262.508 159.401 245.199 176.404 216.902L199.951 177.713C207.704 164.81 224.965 161.536 236.905 170.704L242.5 175L247.349 171.13C258.965 161.86 276.111 165.124 283.508 178.013L306.437 217.965C322.249 245.517 351.59 262.508 383.357 262.508V219.552Z" fill="black"/>
</svg>
