<svg width="474" height="474" viewBox="0 0 474 474" fill="none" xmlns="http://www.w3.org/2000/svg">
<path d="M305 66.0005C346.921 66.0005 382.565 92.8707 395.65 130.328C399.557 141.511 409.27 150.2 420.488 154.003C448.117 163.37 468 189.52 468 220.313C468 233.148 464.544 245.176 458.514 255.518C456.719 258.596 455.313 261.908 454.74 265.424L448.423 304.187C446.29 317.269 433.956 326.147 420.874 324.014L385.99 318.329C387.056 313.567 387.621 308.616 387.621 303.533C387.621 295.429 386.191 287.659 383.571 280.461C382.372 277.165 381.869 273.64 382.268 270.156C382.758 265.867 383.011 261.505 383.011 257.086V224.919C383.01 162.004 332.009 111.002 269.095 111.002H209.928C147.014 111.002 96.011 162.004 96.0107 224.919V257.086C96.0107 258.725 96.0453 260.357 96.1143 261.979C96.2787 265.849 95.3431 269.682 93.5957 273.139C88.9789 282.273 86.3781 292.599 86.3779 303.533C86.3779 309.547 87.1681 315.376 88.6445 320.925L64.4844 323.412C51.2992 324.768 39.5108 315.179 38.1543 301.994L34.7686 269.086C34.3206 264.731 32.606 260.634 30.3145 256.904C23.7728 246.257 20.0001 233.726 20 220.313C20 191.426 37.4983 166.626 62.4736 155.933C72.6228 151.588 81.0594 143.097 84.4453 132.588C96.5173 95.1222 131.824 68.0005 173.5 68.0005C190.107 68.0005 205.702 72.3068 219.219 79.858C230.468 86.1425 244.937 86.0062 256.014 79.4214C270.355 70.8961 287.106 66.0005 305 66.0005Z" fill="black"/>
<path d="M383.357 219.552C383.357 156.637 332.355 105.635 269.44 105.635H214.5C151.586 105.635 95.6668 156.637 95.6668 219.552C95.6668 233.842 95.1235 250.229 95.7939 264.508C123.808 264.508 149.736 249.702 163.973 225.574L193.243 175.968C200.553 163.579 216.547 159.5 228.897 166.876L242.5 175L255.578 166.953C267.542 159.59 283.225 163.58 290.217 175.764L318.419 224.904C331.768 248.164 356.538 262.508 383.357 262.508V219.552Z" fill="black"/>
</svg>
