<svg width="474" height="474" viewBox="0 0 474 474" fill="none" xmlns="http://www.w3.org/2000/svg">
<path d="M88.6426 286.139C87.166 291.688 86.377 297.518 86.377 303.533C86.377 334.836 107.697 361.159 136.608 368.776C120.368 382.349 107.543 399.873 99.6123 419.871C91.8126 424.659 82.6358 427.421 72.8125 427.421C44.4736 427.421 21.5002 404.448 21.5 376.109C21.5 355.86 33.2291 338.35 50.2637 330.003C52.7021 308.656 68.2418 291.29 88.6426 286.139ZM386.321 290.3C401.15 297.981 411.756 312.681 413.734 330.003C430.769 338.35 442.498 355.86 442.498 376.109C442.498 404.448 419.524 427.421 391.186 427.421C386.037 427.421 381.066 426.663 376.378 425.251C368.701 403.015 355.07 383.553 337.389 368.776C366.3 361.159 387.62 334.836 387.62 303.533C387.62 299.004 387.173 294.579 386.321 290.3Z" fill="black"/>
<path d="M383.149 219.552C383.149 156.637 332.147 105.635 269.232 105.635H209.376C146.462 105.635 95.459 156.637 95.459 219.552V257.086C95.459 258.904 95.5017 260.711 95.5861 262.508L106.458 235.001L122.165 223.392L123.963 189.808C124.418 181.316 131.436 174.664 139.94 174.664H181.59H209.997H211.239C219.328 174.664 226.874 170.588 231.309 163.823L238.405 153L245.502 163.823C249.937 170.588 257.483 174.664 265.572 174.664H266.813H295.221H336.037C344.874 174.664 352.037 181.827 352.037 190.664V223.392L369.202 235.001L382.336 270.76C382.873 266.277 383.149 261.714 383.149 257.086V219.552Z" fill="black"/>
</svg>
