<svg width="474" height="474" viewBox="0 0 474 474" fill="none" xmlns="http://www.w3.org/2000/svg">
<path d="M239.857 76.1953C348.82 76.1953 437.152 164.527 437.152 273.49V462.423C437.152 466.304 437.093 470.164 436.978 474H383.357V467.035C383.357 427.558 365.484 392.256 337.39 368.776C366.301 361.16 387.621 334.837 387.621 303.533C387.621 303.251 387.619 302.968 387.615 302.687C399.884 298.624 408.736 287.062 408.736 273.431V247.944C408.736 232.774 397.773 220.164 383.337 217.605C382.298 155.589 331.704 105.635 269.439 105.635H209.583C147.406 105.635 96.8642 155.449 95.6885 217.346C80.3866 219.147 68.5156 232.158 68.5156 247.944V273.431C68.5156 285.835 75.8465 296.526 86.4111 301.411C86.3894 302.116 86.3779 302.823 86.3779 303.533C86.3779 334.836 107.698 361.16 136.609 368.776C108.516 392.256 90.6436 427.558 90.6436 467.035V474H42.7363C42.6206 470.164 42.5625 466.304 42.5625 462.423V273.49C42.5625 164.527 130.894 76.1953 239.857 76.1953Z" fill="black"/>
<path d="M383.356 219.552C383.356 156.637 332.354 105.635 269.439 105.635H209.583C146.669 105.635 95.6661 156.637 95.666 219.552V257.086C95.666 258.904 95.7087 260.711 95.7931 262.508L106.665 235.001L122.372 223.392L124.17 189.808C124.625 181.316 131.643 174.664 140.147 174.664H181.797H210.205H211.446C219.535 174.664 227.081 170.588 231.516 163.823L238.612 153L245.709 163.823C250.144 170.588 257.69 174.664 265.779 174.664H267.02H295.428H336.244C345.081 174.664 352.244 181.827 352.244 190.664V223.392L369.409 235.001L382.543 270.76C383.08 266.277 383.356 261.714 383.356 257.086V219.552Z" fill="black"/>
</svg>
