<svg width="474" height="474" viewBox="0 0 474 474" fill="none" xmlns="http://www.w3.org/2000/svg">
  <g clip-path="url(#clip0_2732_2183)">
    <rect x="347.109" y="217.13" width="61.6262" height="87.1133" rx="30.8131" fill="#6A3B3A" />
    <rect x="347.109" y="217.13" width="61.6262" height="87.1133" rx="30.8131" fill="black" fill-opacity="0.2" />
    <rect x="68.5156" y="217.13" width="61.6262" height="87.1133" rx="30.8131" fill="#6A3B3A" />
    <rect x="68.5156" y="217.13" width="61.6262" height="87.1133" rx="30.8131" fill="black" fill-opacity="0.2" />

    <path
      d="M269.44 105.636C332.355 105.636 383.357 156.637 383.357 219.552V257.086C383.357 261.714 383.081 266.277 382.544 270.76C382.13 274.218 382.604 277.719 383.767 281.002C386.263 288.048 387.622 295.632 387.622 303.533C387.622 340.793 357.417 370.999 320.157 370.999H269.932C269.768 371 269.604 371.002 269.44 371.002H209.584C209.42 371.002 209.256 371 209.093 370.999H153.845C116.585 370.999 86.3789 340.793 86.3789 303.533C86.379 292.788 88.8913 282.629 93.3605 273.612C95.0695 270.164 95.9745 266.352 95.7941 262.508C95.7097 260.711 95.667 258.904 95.667 257.086V219.552C95.667 156.637 146.67 105.636 209.584 105.636H269.44Z"
      fill="#6A3B3A" />
  </g>
  <defs>
    <clipPath id="clip0_2732_2183">
      <rect width="474" height="474" fill="white" />
    </clipPath>
  </defs>
</svg>